<svg xmlns="http://www.w3.org/2000/svg" viewBox="0 0 100 100">
  <circle cx="50" cy="50" r="46" fill="#ffffff"/>
  <circle cx="50" cy="50" r="44" fill="none" stroke="#d1d5db" stroke-width="4"/>
  <path d="M28 12 C45 32, 45 68, 28 88" fill="none" stroke="#d2042d" stroke-width="5" stroke-linecap="round"/>
  <path d="M72 12 C55 32, 55 68, 72 88" fill="none" stroke="#d2042d" stroke-width="5" stroke-linecap="round"/>
  <path d="M33 27 l8 5 M31 41 l9 3 M31 55 l9 -3 M33 69 l8 -5" stroke="#d2042d" stroke-width="3" stroke-linecap="round"/>
  <path d="M67 27 l-8 5 M69 41 l-9 3 M69 55 l-9 -3 M67 69 l-8 -5" stroke="#d2042d" stroke-width="3" stroke-linecap="round"/>
  <path d="M34 62 L46 38 L55 54 L62 44 L70 62" fill="none" stroke="#0f172a" stroke-width="5" stroke-linecap="round" stroke-linejoin="round"/>
</svg>
